<svg width="1000" height="1000" viewBox="0 0 1000 1000" fill="none" xmlns="http://www.w3.org/2000/svg">
<rect x="300" y="425" width="500" height="50" fill="white"/>
<rect x="275" y="475" width="500" height="50" fill="white"/>
<rect x="250" y="525" width="500" height="50" fill="white"/>
<rect x="225" y="575" width="500" height="50" fill="white"/>
<rect x="200" y="625" width="500" height="50" fill="white"/>
<rect x="175" y="675" width="500" height="50" fill="white"/>
<rect x="325" y="325" width="50" height="50" fill="white"/>
<rect x="375" y="275" width="50" height="50" fill="white"/>
<rect x="375" y="325" width="50" height="50" fill="white"/>
<rect x="425" y="275" width="50" height="50" fill="white"/>
<rect x="475" y="275" width="50" height="50" fill="white"/>
<rect x="525" y="275" width="50" height="50" fill="white"/>
<rect x="575" y="275" width="50" height="50" fill="white"/>
<rect x="625" y="275" width="50" height="50" fill="white"/>
<rect x="675" y="275" width="50" height="50" fill="white"/>
<rect x="725" y="275" width="50" height="50" fill="white"/>
<rect x="775" y="275" width="50" height="50" fill="white"/>
<rect x="700" y="350" width="50" height="50" fill="white"/>
<rect x="575" y="340" width="60" height="60" fill="white"/>
</svg>
